<?xml version="1.0" standalone="no"?>
<!DOCTYPE svg PUBLIC "-//W3C//DTD SVG 20010904//EN"
 "http://www.w3.org/TR/2001/REC-SVG-20010904/DTD/svg10.dtd">
<svg version="1.0" xmlns="http://www.w3.org/2000/svg"
 width="1200.000000pt" height="1343.000000pt" viewBox="0 0 1200.000000 1343.000000"
 preserveAspectRatio="xMidYMid meet">

<g transform="translate(0.000000,1343.000000) scale(0.100000,-0.100000)"
fill="#000000" stroke="none">
<path d="M5685 13420 c-1362 -88 -2921 -262 -4060 -455 -417 -71 -465 -81
-480 -97 -24 -26 -167 -285 -284 -518 -499 -988 -750 -1914 -837 -3091 -25
-327 -25 -1000 -1 -1259 60 -645 173 -1244 352 -1870 285 -996 712 -1929 1263
-2755 335 -503 635 -869 1071 -1306 469 -469 791 -733 1321 -1084 568 -376
1134 -665 1788 -914 l183 -69 77 28 c2505 914 4343 2767 5302 5345 311 838
515 1722 596 2585 21 233 29 784 15 1075 -69 1392 -389 2523 -1044 3682 l-92
162 -50 11 c-109 24 -828 142 -1125 184 -576 82 -1202 157 -1840 220 -1121
111 -1786 149 -2155 126z m601 -560 c141 -168 278 -329 302 -357 l44 -53 -33
14 c-19 8 -163 64 -320 125 l-287 112 -308 -126 c-169 -68 -309 -123 -312
-121 -2 3 137 171 310 374 290 342 314 369 329 353 9 -9 133 -153 275 -321z
m28 -362 c171 -66 316 -120 321 -120 52 8 54 7 154 -112 l101 -120 0 -114 c0
-88 -3 -112 -12 -106 -7 4 -104 67 -215 140 l-202 132 -128 6 c-70 4 -149 9
-175 12 l-48 6 0 -39 c0 -21 -5 -130 -10 -244 l-10 -205 -44 -97 c-24 -54 -45
-100 -48 -102 -2 -2 -25 44 -50 103 l-46 107 -7 227 c-4 124 -11 231 -14 236
-4 7 -64 6 -176 0 l-170 -11 -100 -65 c-55 -36 -151 -98 -212 -139 l-113 -73
0 118 0 117 101 118 c92 107 103 117 118 103 14 -13 49 -1 331 114 173 71 321
129 329 129 8 1 154 -54 325 -121z m4293 -186 c436 -656 649 -1333 679 -2162
18 -510 -95 -1085 -331 -1680 -72 -183 -239 -526 -340 -701 -395 -682 -935
-1286 -1606 -1795 -116 -87 -125 -92 -140 -76 -9 9 -101 220 -204 467 l-187
450 -12 122 -11 122 -55 38 c-54 38 -56 41 -117 188 -35 83 -72 169 -82 192
-17 34 -189 183 -1030 888 -556 465 -1011 848 -1011 851 0 9 9 2 1034 -810
l1011 -802 804 -392 c443 -215 805 -391 806 -389 1 1 -283 294 -631 651 l-633
649 -1143 539 c-629 297 -1158 546 -1177 554 -19 8 -32 17 -29 20 3 3 548
-229 1209 -515 l1204 -520 905 -317 c498 -174 912 -319 920 -322 15 -5 -201
151 -1086 784 l-460 329 -1320 294 c-725 161 -1323 298 -1329 303 -7 7 0 8 20
4 17 -3 591 -112 1276 -241 l1245 -234 1064 -116 c585 -63 1068 -114 1073
-112 5 1 -420 178 -945 392 l-953 390 -700 -2 c-385 -1 -1010 -5 -1390 -8
-428 -4 -686 -3 -680 3 6 5 631 37 1390 71 1132 51 1524 65 2180 77 440 8 913
18 1051 22 l250 7 -1042 259 -1043 259 -1377 -307 c-757 -168 -1379 -305
-1381 -302 -5 5 45 17 1537 376 597 144 1562 373 2145 510 l1060 247 -175 6
c-96 4 -575 14 -1065 23 l-890 17 -710 -310 c-390 -171 -975 -426 -1298 -568
-324 -141 -591 -254 -594 -251 -4 3 32 24 78 45 46 22 631 298 1299 613 l1215
574 1007 379 c554 209 1005 381 1004 383 -2 1 -194 -11 -427 -28 -233 -17
-719 -53 -1079 -79 l-656 -48 -1197 -861 c-1311 -943 -1221 -879 -1216 -864 2
5 549 421 1215 924 l1211 913 866 450 c476 247 865 451 863 452 -1 2 -389
-123 -862 -276 -472 -154 -860 -278 -862 -276 -3 2 1780 602 1798 604 3 1 28
-34 57 -77z m-8367 -191 c426 -143 771 -260 767 -260 -4 -1 -346 109 -760 244
-413 134 -752 243 -754 242 -1 -2 426 -264 950 -584 l952 -581 1142 -798 c628
-440 1144 -804 1147 -811 5 -11 -573 370 -1644 1083 -305 204 -591 393 -635
422 l-80 51 -1114 296 c-613 162 -1116 294 -1118 292 -2 -2 459 -260 1024
-574 l1028 -569 855 -366 c470 -201 1047 -448 1283 -549 235 -100 427 -186
427 -190 0 -4 -588 228 -1307 515 l-1308 523 -1114 57 c-612 32 -1115 56
-1116 54 -2 -2 476 -142 1062 -312 l1066 -309 906 -189 c498 -103 1102 -229
1341 -278 417 -87 506 -107 468 -109 -10 -1 -628 107 -1375 239 l-1357 240
-1041 -140 c-572 -77 -1051 -143 -1065 -147 -14 -3 448 -57 1025 -120 l1050
-114 1395 -16 c767 -8 1397 -17 1399 -19 2 -2 2 -6 0 -8 -2 -2 -436 -13 -964
-25 -528 -12 -1133 -26 -1344 -31 l-383 -10 -989 -347 c-544 -192 -985 -349
-980 -351 5 -2 494 45 1087 104 l1079 106 1255 248 c690 137 1257 246 1259
244 2 -2 2 -5 0 -7 -2 -2 -546 -126 -1209 -276 -663 -149 -1217 -277 -1232
-284 -27 -12 -1767 -1140 -1764 -1144 1 -1 454 155 1006 346 l1005 347 1105
489 c608 268 1108 490 1113 492 4 2 7 1 7 -4 0 -4 -488 -244 -1083 -532
l-1083 -524 -640 -600 c-351 -330 -677 -636 -724 -679 l-85 -80 75 40 c41 22
425 227 853 456 l777 415 972 745 c534 410 974 743 977 740 3 -3 1 -8 -5 -12
-5 -4 -426 -354 -934 -779 l-925 -772 -88 -189 -88 -189 -63 -38 -63 -39 -7
-108 -7 -108 -250 -527 c-138 -291 -257 -538 -265 -551 -15 -22 -15 -22 -152
82 -721 548 -1272 1183 -1675 1931 -284 526 -477 1095 -557 1642 -81 557 -15
1238 176 1810 37 111 131 344 143 353 3 3 7 12 9 20 20 89 342 640 374 640 7
0 362 -117 788 -259z m3584 -188 l8 -207 63 -144 64 -144 -49 -106 -49 -107
22 -12 c12 -7 27 -12 33 -13 6 0 27 34 46 75 l36 75 35 -75 c20 -41 38 -75 41
-75 3 0 17 5 31 12 31 14 31 13 -25 135 l-43 91 63 143 62 143 10 205 c5 113
10 207 13 209 2 2 59 0 128 -3 l125 -8 226 -148 226 -148 0 -146 0 -145 -51
-90 c-28 -50 -53 -90 -54 -90 -2 0 16 44 41 98 40 90 42 98 26 110 -9 7 -95
53 -189 103 l-173 90 -152 -11 c-84 -6 -156 -15 -159 -18 -6 -8 -49 -286 -49
-317 1 -13 17 -30 48 -49 l47 -29 278 6 279 6 -22 -37 c-12 -20 -87 -149 -166
-287 l-143 -250 -6 -90 c-11 -161 -4 -149 -93 -176 -74 -22 -89 -23 -357 -21
-252 2 -288 5 -357 24 -71 20 -78 24 -78 47 -1 14 -4 69 -9 122 l-8 97 -216
375 -217 376 0 153 0 153 222 145 222 145 75 6 c42 3 101 6 132 7 l56 2 7
-207z m726 -283 c44 -22 80 -42 80 -44 0 -2 -21 2 -47 10 -29 9 -94 14 -180
14 l-133 0 0 -39 c0 -33 4 -40 22 -43 17 -2 24 -12 30 -43 18 -91 10 -84 96
-88 56 -2 42 -4 -48 -5 -175 -3 -172 -6 -150 138 9 60 20 113 23 116 3 4 52
10 109 14 57 4 106 8 111 9 4 0 43 -17 87 -39z m-2875 -40 c27 -27 47 -50 44
-50 -3 0 -27 23 -54 50 -27 28 -47 50 -44 50 3 0 27 -22 54 -50z m2838 -82
c-16 -28 -25 -33 -63 -36 -46 -4 -60 7 -60 46 0 21 4 22 71 22 l71 0 -19 -32z
m244 -51 l-23 -52 -97 -3 c-53 -1 -97 0 -97 3 0 3 14 30 31 59 l30 55 47 -15
c26 -7 48 -14 50 -14 1 0 7 11 12 25 9 25 11 25 40 10 l29 -15 -22 -53z m1363
-72 c-41 -41 -77 -75 -79 -75 -3 0 28 34 69 75 41 41 77 75 79 75 3 0 -28 -34
-69 -75z m-4090 -140 c80 -80 142 -145 140 -145 -3 0 -70 65 -150 145 -80 80
-142 145 -140 145 3 0 70 -65 150 -145z m1147 5 c30 -52 64 -111 76 -130 41
-68 -91 58 -144 137 -44 65 -47 73 -31 82 31 19 43 7 99 -89z m1736 88 c15
-12 13 -19 -26 -79 -35 -56 -133 -159 -150 -159 -3 0 27 56 66 125 40 68 77
125 83 125 5 0 18 -6 27 -12z m977 -171 c0 -1 -64 -65 -142 -142 l-143 -140
140 143 c130 132 145 147 145 139z m-2230 -1511 c0 -6 -62 51 -137 125 -76 74
-407 397 -735 718 -329 321 -598 585 -598 587 0 3 331 -316 735 -708 404 -392
735 -717 735 -722z m1930 1220 c0 -6 -1200 -1176 -1230 -1201 -51 -39 170 179
690 684 294 286 536 520 538 520 1 1 2 -1 2 -3z m-1433 -486 l102 0 10 -37 c7
-26 7 -39 0 -44 -29 -18 -442 -20 -528 -3 -21 4 -22 9 -16 42 4 20 9 41 12 46
4 5 72 6 162 3 86 -4 202 -7 258 -7z m-39 -164 c100 3 182 2 182 -2 0 -5 4
-25 9 -45 l8 -37 -319 0 -319 0 6 32 c13 66 4 62 132 53 65 -4 200 -5 301 -1z
m225 -195 c6 -25 5 -36 -5 -42 -20 -13 -675 -11 -683 2 -4 6 -4 26 -1 45 l7
34 336 -2 337 -3 9 -34z m-19 -144 c-4 -12 -17 -60 -29 -107 l-21 -85 -115 -7
c-63 -4 -187 -5 -276 -2 l-161 6 -26 104 c-14 57 -26 106 -26 109 0 2 149 5
331 5 l330 0 -7 -23z m-74 -279 c0 -33 -27 -111 -41 -119 -25 -13 -291 -22
-368 -12 l-64 8 -12 42 c-7 23 -15 52 -18 65 l-6 23 254 0 c140 0 255 -3 255
-7z m-290 -209 c41 -1 112 2 158 6 45 4 82 5 82 1 0 -4 -7 -35 -16 -69 l-15
-62 -88 -41 -87 -41 -82 41 c-88 43 -88 43 -108 145 l-7 34 44 -7 c24 -3 78
-7 119 -7z m-4815 -1725 c25 -59 45 -114 45 -123 0 -9 -38 -139 -85 -290 -47
-151 -84 -276 -82 -277 1 -1 78 54 170 122 92 68 171 124 175 124 4 0 24 -48
43 -108 l36 -107 -186 -157 c-102 -86 -247 -208 -323 -272 l-136 -116 -47 119
-47 118 188 551 c114 332 192 545 197 537 4 -7 27 -62 52 -121z m10095 -38
c167 -53 305 -98 307 -99 1 -2 -5 -33 -14 -71 -12 -54 -18 -67 -32 -63 -9 3
-60 21 -113 40 -54 19 -98 32 -98 29 0 -4 -9 -44 -19 -88 l-18 -81 83 -111 84
-112 -26 -65 c-14 -36 -29 -65 -33 -64 -3 0 -119 142 -258 315 l-251 315 18
52 c33 95 40 109 53 104 6 -2 149 -48 317 -101z m-530 -441 c28 -14 50 -28 50
-31 0 -2 -10 -24 -22 -47 -11 -23 -22 -62 -22 -85 -1 -36 4 -48 27 -68 36 -31
69 -30 160 2 145 51 234 51 308 1 87 -59 109 -213 54 -380 -33 -100 -27 -98
-129 -51 -45 20 -56 30 -50 43 53 120 57 186 15 233 -40 45 -89 44 -197 -5
-121 -55 -202 -50 -282 18 -69 58 -90 152 -57 262 15 52 67 133 85 133 6 0 33
-11 60 -25z m-9098 -420 l58 -83 -83 -109 c-46 -59 -183 -240 -305 -401 l-221
-293 -56 117 c-47 100 -53 120 -43 135 30 43 583 719 588 719 3 -1 31 -38 62
-85z m9144 -251 c211 -119 384 -221 384 -226 0 -15 -80 -168 -88 -168 -4 0
-52 34 -107 75 -55 41 -104 74 -108 75 -5 0 -30 -46 -57 -102 l-48 -103 88
-170 88 -170 -55 -78 c-31 -43 -59 -75 -64 -70 -4 4 -129 224 -277 487 l-269
480 32 50 c18 28 44 70 59 94 14 23 29 42 32 42 3 0 178 -97 390 -216z m-8909
-91 c32 -43 63 -84 67 -90 4 -8 -92 -130 -264 -332 -148 -176 -270 -326 -270
-332 0 -7 45 -89 100 -182 l100 -169 -70 -83 c-39 -46 -76 -88 -83 -94 -10 -8
-45 51 -160 272 -81 155 -148 287 -148 292 -2 10 651 794 662 795 3 0 33 -35
66 -77z m4205 -189 l36 -6 60 -212 c56 -200 58 -211 40 -214 -18 -3 -19 -9
-14 -55 13 -120 28 -510 22 -602 -10 -148 -27 -285 -37 -285 -14 0 -68 188
-88 310 -11 63 -22 160 -26 215 -10 163 -10 165 -49 165 l-33 0 -7 -172 c-4
-95 -11 -207 -16 -248 -12 -91 -39 -210 -50 -210 -10 0 -45 109 -64 201 -8 41
-20 147 -26 235 l-11 159 66 350 c36 193 68 356 70 363 5 13 65 16 127 6z
m4298 -389 c178 -203 334 -382 348 -397 l24 -26 -53 -96 c-41 -75 -55 -94 -64
-84 -103 116 -349 378 -355 378 -4 0 -41 -47 -83 -104 l-75 -104 151 -159 c82
-87 172 -181 199 -209 l49 -51 -68 -83 -67 -83 -36 40 c-19 23 -201 217 -405
433 -203 215 -371 396 -373 401 -2 4 32 45 75 90 l78 81 138 -151 c76 -83 142
-151 145 -151 4 1 38 46 75 101 60 87 67 102 55 116 -7 9 -64 75 -126 147 -62
71 -110 136 -108 143 3 6 33 46 67 88 50 60 65 73 74 63 7 -7 157 -179 335
-383z m-4900 1 c24 -225 24 -236 5 -236 -8 0 -16 -13 -19 -32 -21 -128 -30
-170 -51 -242 -25 -86 -78 -210 -122 -286 l-26 -44 -13 34 c-19 53 -16 184 6
284 11 50 20 91 20 92 0 4 -63 24 -66 22 -1 -2 -34 -59 -74 -128 -40 -69 -127
-208 -195 -310 -67 -102 -131 -201 -143 -220 -12 -19 -22 -33 -22 -30 0 9 349
1000 359 1018 26 46 304 281 318 268 2 -1 12 -87 23 -190z m1286 27 c238 -242
387 -615 428 -1078 l6 -60 -21 40 c-98 185 -285 492 -417 682 l-85 122 -30
-15 c-26 -14 -28 -19 -22 -50 3 -20 8 -43 11 -52 3 -9 -2 -6 -10 8 -13 21 -15
69 -16 283 l0 259 43 -34 c23 -18 74 -65 113 -105z m-4422 -34 c44 -53 73 -96
69 -102 -4 -7 -123 -177 -264 -378 -141 -202 -264 -378 -274 -392 l-17 -26
126 -162 c69 -88 126 -166 126 -173 -1 -15 -133 -199 -144 -200 -6 -1 -103
129 -217 287 l-208 288 281 372 c154 205 315 418 357 474 42 56 79 102 83 103
3 0 40 -41 82 -91z m7116 -385 c67 -64 70 -68 55 -88 -45 -62 -95 -156 -103
-191 -17 -79 18 -133 100 -155 31 -9 60 -7 146 11 238 48 391 -10 471 -180 23
-50 26 -68 26 -171 0 -102 -3 -124 -29 -195 -27 -73 -168 -303 -197 -321 -11
-6 -179 152 -179 168 0 4 18 31 40 60 58 76 110 188 117 251 7 71 -15 119 -72
152 -63 37 -116 41 -241 15 -129 -26 -199 -23 -276 13 -117 53 -189 159 -190
278 0 106 37 208 110 297 35 45 127 122 143 122 5 0 40 -30 79 -66z m1831 29
c-12 -20 -14 -14 -5 12 4 9 9 14 11 11 3 -2 0 -13 -6 -23z m-10375 -291 c424
-876 957 -1621 1635 -2287 201 -197 301 -288 484 -440 792 -659 1693 -1166
2730 -1535 293 -105 241 -101 450 -30 888 304 1760 761 2470 1293 1069 802
1926 1855 2497 3068 51 108 94 196 96 194 5 -5 -136 -349 -214 -523 -906
-2000 -2419 -3483 -4419 -4330 -224 -95 -585 -232 -611 -232 -24 0 -290 98
-499 183 -2183 888 -3806 2532 -4696 4755 -65 163 -88 231 -52 152 9 -19 67
-140 129 -268z m5453 143 c23 -82 44 -156 46 -162 3 -7 1 -13 -4 -13 -13 0
-91 280 -91 327 0 19 12 -18 49 -152z m453 -97 c199 -313 204 -323 242 -506
36 -174 80 -572 63 -572 -3 0 -96 123 -208 273 -111 149 -203 273 -205 275 -1
2 -16 -4 -34 -13 -21 -11 -30 -21 -26 -31 15 -38 45 -217 51 -294 l5 -85 -20
74 c-11 41 -31 92 -44 115 -23 41 -23 44 -29 430 -3 213 -4 386 -2 385 1 -2
17 -58 34 -124 41 -157 46 -167 73 -163 39 5 50 43 43 143 -3 50 -12 120 -19
158 -7 37 -12 67 -10 67 1 0 40 -60 86 -132z m-3733 -74 c135 -108 252 -203
260 -210 12 -11 2 -26 -64 -96 -43 -46 -80 -84 -84 -85 -3 -2 -71 55 -151 127
-80 71 -148 130 -153 130 -4 0 -27 -30 -50 -67 -24 -38 -64 -100 -89 -139
l-46 -71 164 -139 c90 -76 164 -142 164 -146 0 -12 -132 -208 -140 -208 -3 0
-78 61 -165 135 -88 74 -164 134 -169 132 -5 -2 -51 -64 -102 -139 l-94 -135
165 -148 164 -148 -40 -56 c-23 -31 -59 -82 -82 -113 -23 -32 -44 -58 -48 -58
-12 0 -484 512 -481 522 5 19 778 1108 786 1108 5 0 119 -88 255 -196z m2401
94 c0 -28 38 -155 58 -193 10 -19 25 -125 44 -299 15 -148 29 -271 31 -272 2
-2 35 162 73 365 l69 369 17 -93 c21 -120 50 -210 101 -309 37 -71 42 -77 54
-60 23 31 71 168 84 237 7 37 16 67 20 67 4 0 10 -16 13 -35 18 -94 135 -375
156 -375 11 0 48 145 64 250 8 52 18 146 22 209 l7 113 28 -77 c16 -42 50
-113 75 -157 43 -73 48 -79 56 -58 5 13 10 21 12 19 2 -2 27 -87 55 -189 28
-102 54 -194 58 -205 5 -19 5 -19 -18 1 -37 33 -149 106 -149 97 0 -4 12 -44
26 -88 41 -129 42 -192 4 -310 -31 -96 -33 -98 -46 -73 -27 51 -64 201 -84
339 -11 77 -20 142 -20 144 0 3 -16 5 -36 5 l-35 0 7 -137 c7 -149 -1 -231
-38 -367 -20 -75 -22 -77 -34 -55 -44 79 -94 316 -94 450 0 94 -6 109 -44 109
l-32 0 -12 -129 c-6 -71 -19 -162 -27 -203 -19 -83 -64 -229 -75 -241 -12 -14
-68 143 -85 238 -8 48 -15 122 -15 164 0 42 -3 100 -6 129 -7 51 -8 52 -39 52
l-33 0 -11 -82 c-21 -146 -41 -249 -62 -303 -20 -55 -54 -105 -69 -105 -28 0
-70 237 -70 398 l0 82 -32 0 -33 0 -17 -103 c-22 -136 -47 -208 -120 -356
l-62 -124 -13 31 c-20 49 -43 197 -43 276 0 66 13 180 26 231 4 16 0 24 -13
28 -10 2 -26 8 -35 12 -27 11 -164 -275 -187 -391 l-18 -89 -7 65 c-9 84 9
308 35 435 34 165 129 420 184 497 16 23 16 23 10 -12 -9 -50 17 -162 58 -249
l35 -75 38 60 c54 83 141 256 160 320 17 52 34 63 34 22z m3774 -793 l435
-560 -88 -89 -89 -89 -453 280 c-250 154 -455 279 -457 278 -2 -2 139 -199
312 -438 174 -240 316 -440 316 -446 0 -15 -142 -123 -150 -114 -4 4 -209 283
-455 618 -247 336 -459 624 -471 641 l-24 31 134 76 c73 42 136 77 140 77 3 0
178 -114 389 -253 210 -139 389 -257 397 -262 8 -5 -8 20 -36 55 -28 36 -153
195 -278 353 l-226 289 78 63 c42 34 80 60 84 56 4 -3 203 -258 442 -566z
m-2454 -7 l43 -61 10 -216 c5 -119 11 -217 12 -219 1 -1 23 6 48 15 25 9 48
15 50 13 2 -3 79 -126 172 -275 92 -148 170 -272 172 -275 3 -3 2 157 -2 355
l-7 360 116 46 116 46 1 -241 c1 -133 4 -283 8 -335 l6 -94 275 -194 c151
-106 376 -264 499 -351 l223 -157 -33 -28 c-123 -104 -170 -139 -181 -134 -7
3 -188 143 -403 312 l-390 307 -6 -134 -6 -133 209 -313 c115 -173 208 -315
206 -317 -2 -1 -57 -34 -123 -73 l-120 -71 -30 48 c-16 26 -199 314 -405 640
l-375 593 -5 -78 -5 -79 -22 121 c-21 117 -24 126 -84 220 -34 55 -66 104 -71
109 -5 6 -6 -106 -2 -262 4 -150 4 -273 1 -273 -8 0 -54 145 -78 250 -11 46
-31 154 -44 240 -14 85 -28 170 -31 188 -4 25 -10 32 -27 32 -47 0 -49 -7 -33
-141 30 -255 40 -389 40 -569 0 -102 -5 -196 -10 -209 -10 -23 -12 -20 -36 40
-36 90 -89 305 -143 573 -25 127 -47 232 -50 234 -2 2 -18 1 -35 -3 -29 -6
-31 -10 -26 -38 17 -92 47 -369 55 -496 8 -144 1 -314 -16 -359 -8 -22 -12
-17 -42 47 -62 134 -120 436 -152 788 -7 73 -16 138 -20 144 -4 7 -18 9 -39 4
-32 -7 -32 -8 -27 -54 14 -113 19 -443 8 -569 -13 -153 -36 -233 -88 -317
l-37 -59 -17 39 c-34 79 -43 196 -41 553 1 194 5 350 11 359 8 15 12 12 27
-20 10 -20 21 -37 24 -37 14 0 91 182 117 275 l27 96 21 -78 c12 -43 33 -106
48 -140 29 -66 98 -196 102 -191 4 5 93 321 97 342 2 13 13 -6 30 -48 25 -64
128 -249 135 -242 2 1 8 38 13 82 6 43 25 122 42 174 27 78 33 111 33 182 0
47 3 84 7 82 28 -17 62 -107 88 -230 17 -76 34 -152 39 -169 5 -16 12 -65 16
-107 4 -43 10 -78 13 -78 20 0 92 34 92 44 0 6 -5 40 -11 76 -6 36 -12 151
-13 255 -1 105 -6 202 -10 218 -5 15 -6 27 -4 27 3 0 25 -28 48 -62z m-2626
-44 c200 -137 239 -178 286 -299 19 -48 23 -80 24 -160 0 -106 -13 -163 -62
-260 -38 -76 -482 -734 -523 -776 -114 -114 -270 -143 -398 -74 -86 47 -377
276 -389 306 -5 12 897 1359 909 1359 6 0 75 -43 153 -96z m4276 -608 c249
-362 448 -662 443 -666 -20 -20 -198 -160 -203 -160 -7 0 -940 1331 -943 1344
-3 13 235 158 244 148 4 -4 210 -303 459 -666z m-2961 347 c19 -40 36 -73 38
-73 2 0 22 14 44 32 45 36 93 106 119 175 11 28 20 42 23 33 3 -8 12 -43 21
-76 8 -34 31 -95 49 -136 l34 -74 -33 4 c-23 3 -35 0 -38 -9 -2 -8 -9 -109
-15 -224 -18 -343 -54 -575 -99 -647 l-19 -29 -19 58 c-25 76 -26 315 -2 533
9 85 20 190 23 233 l7 77 -35 0 c-31 0 -36 -4 -41 -27 -7 -36 -33 -282 -41
-398 -12 -155 -57 -335 -101 -402 -13 -21 -18 -23 -25 -12 -14 27 -31 192 -27
261 5 67 5 69 -23 83 -41 22 -49 19 -49 -17 0 -61 -71 -278 -91 -278 -13 0
-39 134 -51 264 l-12 125 -73 32 c-44 19 -77 28 -83 23 -11 -12 -200 -355
-200 -363 0 -4 78 -45 174 -91 96 -47 175 -88 175 -93 1 -6 -134 -254 -144
-265 -2 -2 -79 35 -173 82 l-170 85 -114 -176 c-62 -97 -116 -181 -120 -187
-4 -7 74 -55 203 -124 115 -62 211 -116 213 -120 5 -8 -154 -302 -165 -305 -8
-3 -689 407 -689 414 0 7 894 1507 904 1516 3 3 65 -18 139 -46 74 -28 137
-51 140 -51 4 0 7 21 7 48 l1 47 25 -47 c13 -27 26 -48 29 -48 16 0 170 282
210 385 5 15 11 4 24 -50 9 -38 32 -103 50 -142z"/>
<path d="M5313 11662 c-100 -53 -183 -102 -183 -108 0 -6 20 -54 44 -106 l44
-95 128 -6 c71 -4 196 -7 278 -7 l149 0 49 31 c26 17 48 32 48 34 0 10 -51
330 -53 332 -3 2 -285 23 -307 22 -8 0 -97 -44 -197 -97z m393 12 l52 -5 17
-115 c22 -148 27 -144 -145 -142 -88 2 -102 3 -47 5 58 3 77 7 77 18 0 8 5 36
11 64 8 39 15 50 32 53 18 2 22 10 22 38 l0 35 -145 0 c-80 0 -158 -4 -175 -8
-17 -5 1 9 40 31 75 43 82 44 261 26z m-413 -161 c2 -1 25 4 53 11 l50 13 32
-58 33 -59 -100 0 -99 0 -17 43 c-9 23 -19 47 -22 54 -2 6 8 18 24 26 26 14
28 14 36 -6 4 -12 9 -22 10 -24z m313 25 c-3 -13 -6 -29 -6 -35 0 -9 -16 -13
-48 -13 -42 0 -50 3 -65 29 -9 16 -17 32 -17 35 0 3 32 6 71 6 69 0 71 -1 65
-22z"/>
<path d="M5748 11223 c-22 -6 -22 -17 -3 -75 13 -37 23 -49 54 -63 29 -13 44
-29 62 -66 l23 -50 115 3 116 3 27 49 c17 32 39 56 61 68 29 14 38 27 51 70 8
29 14 54 12 55 -1 2 -16 6 -33 9 -28 6 -32 3 -43 -31 -8 -25 -22 -41 -45 -52
-21 -10 -40 -31 -53 -59 l-22 -44 -73 0 -74 0 -18 41 c-13 27 -31 47 -56 59
-29 15 -38 27 -43 55 -7 35 -15 39 -58 28z"/>
<path d="M5855 10930 l-110 -5 -97 -63 c-54 -35 -98 -65 -98 -67 0 -1 42 -34
93 -72 l93 -70 132 -8 c73 -4 190 -4 262 0 l130 8 89 66 c50 36 90 70 91 74 0
4 -44 36 -97 71 l-98 63 -140 4 c-77 2 -189 2 -250 -1z m415 -102 c27 -18 50
-35 49 -38 0 -3 -21 -20 -46 -39 l-46 -34 -227 0 -227 0 -47 33 c-25 18 -46
37 -46 41 0 3 21 21 48 38 l47 31 223 0 222 0 50 -32z"/>
<path d="M5812 10810 l3 -35 179 -3 c99 -1 183 1 188 6 4 4 6 21 2 38 l-5 29
-185 0 -185 0 3 -35z"/>
<path d="M11016 7598 c6 -11 111 -144 135 -171 6 -7 39 84 39 107 0 4 -12 11
-27 17 -122 48 -154 58 -147 47z"/>
<path d="M10462 6533 c161 -286 160 -285 172 -266 28 40 70 122 66 126 -8 7
-198 125 -221 138 -12 6 -19 7 -17 2z"/>
<path d="M3726 3714 c-181 -267 -325 -489 -320 -493 132 -93 190 -109 260 -73
55 28 64 40 236 302 299 455 331 517 308 598 -14 53 -34 78 -96 117 -30 19
-56 35 -57 35 -2 0 -151 -219 -331 -486z"/>
<path d="M5355 4138 c-6 -25 -45 -219 -45 -223 0 -4 80 -28 84 -24 2 2 11 60
19 129 17 133 15 140 -30 140 -15 0 -24 -7 -28 -22z"/>
</g>
</svg>
